<svg viewBox="0 0 96 96" xmlns="http://www.w3.org/2000/svg" xmlns:xlink="http://www.w3.org/1999/xlink" id="Icons_Questions_RTL" overflow="hidden"><circle cx="30.5" cy="44.6" r="9" fill="#ADB9CA"/><path d="M72.5 88 72.5 79C72.5351 77.5755 71.8606 76.2266 70.7 75.4 68.1105 73.3711 65.106 71.9371 61.9 71.2 59.4968 70.4764 57.0087 70.0729 54.5 70 51.9855 70.0081 49.4881 70.4131 47.1 71.2 43.9412 72.0682 40.9617 73.4903 38.3 75.4 37.173 76.255 36.5078 77.5854 36.5 79L36.5 88Z" fill="#ADB9CA"/><circle cx="54.5" cy="58.6" r="9" fill="#ADB9CA"/><path d="M35.9 72.2 35.9 72.2C38.7079 70.1961 41.8121 68.644 45.1 67.6 42.8319 65.2265 41.5458 62.0827 41.5 58.8L41.5 58.4C40.3317 57.9105 39.1283 57.5094 37.9 57.2 35.4968 56.4764 33.0087 56.0729 30.5 56 27.9856 56.0081 25.4881 56.4131 23.1 57.2 19.9732 58.1522 17.0069 59.5679 14.3 61.4 13.1394 62.2266 12.4649 63.5755 12.5 65L12.5 74 34.1 74C34.5958 73.3042 35.2042 72.6958 35.9 72.2Z" fill="#ADB9CA"/><path d="M81.35 8 43.58 8C42.4257 8.00547 41.4945 8.94562 41.4999 10.0999 41.4999 10.1033 41.5 10.1066 41.5 10.11L41.5 35.86C41.4777 37.0196 42.3997 37.9777 43.5592 38 43.5595 38 43.5597 38 43.56 38L49.56 38 49.56 46.44 57.87 38 81.35 38C82.5075 37.989 83.44 37.0476 83.44 35.89L83.44 10.11C83.4401 8.95245 82.5075 8.01097 81.35 8ZM62.29 34.25 62.29 34.25C61.0639 34.2499 60.0701 33.2559 60.0702 32.0298 60.0703 30.8037 61.0643 29.8099 62.2904 29.81 63.5047 29.8101 64.4936 30.7858 64.51 32 64.5325 33.2203 63.5615 34.2279 62.3412 34.2504 62.3075 34.2511 62.2737 34.2509 62.24 34.25ZM69.21 18.68 69.21 18.93 66.36 18.93 66.36 18.68C66.3799 18.4504 66.3799 18.2196 66.36 17.99 66.17 15.9332 64.3487 14.4199 62.2919 14.6098 62.2913 14.6099 62.2906 14.6099 62.29 14.61L62.14 14.61C59.9312 14.6483 58.1717 16.47 58.21 18.6788 58.21 18.6792 58.21 18.6796 58.21 18.68 58.21 20.91 59.81 22.36 62.29 22.36L63.71 22.36 63.71 28.25 60.86 28.25 60.86 25.1C57.6451 24.6991 55.2629 21.9183 55.36 18.68L55.36 18.52C55.4094 14.7391 58.509 11.7111 62.29 11.75 65.9013 11.5392 68.9998 14.2959 69.2106 17.9072 69.2256 18.1646 69.2254 18.4226 69.21 18.68Z" fill="#ADB9CA"/></svg>