<svg viewBox="0 0 96 96" xmlns="http://www.w3.org/2000/svg" xmlns:xlink="http://www.w3.org/1999/xlink" id="Icons_AlarmClock" overflow="hidden"><path d="M26 52C26 39.9 35.9 30 48 30 60.1 30 70 39.9 70 52 70 64.1 60.1 74 48 74 35.9 74 26 64.1 26 52ZM50 24.1 50 20 54 20C55.1 20 56 19.1 56 18 56 16.9 55.1 16 54 16L42 16C40.9 16 40 16.9 40 18 40 19.1 40.9 20 42 20L46 20 46 24.1C31.5 25.1 20 37.2 20 52 20 59.6 23 66.5 28 71.6L24.2 79.1C23.7 80.1 24.1 81.3 25.1 81.8 25.4 81.9 25.7 82 26 82 26.7 82 27.4 81.6 27.8 80.9L31.1 74.3C35.8 77.9 41.6 80 48 80 54.4 80 60.2 77.9 64.9 74.3L68.2 80.9C68.6 81.6 69.3 82 70 82 70.3 82 70.6 81.9 70.9 81.8 71.9 81.3 72.3 80.1 71.8 79.1L68 71.6C72.9 66.6 76 59.6 76 52 76 37.2 64.5 25.1 50 24.1Z" fill="#ADB9CA"/><path d="M46 50 32 50 32 54 48 54C49.1 54 50 53.1 50 52L50 36 46 36 46 50Z" fill="#ADB9CA"/><path d="M80.2 24.2 71.9 15.9C70.3 14.3 67.8 14.3 66.2 15.9L61 21 75 35 80.2 29.8C81.7 28.3 81.7 25.7 80.2 24.2Z" fill="#ADB9CA"/><path d="M35 21 29.8 15.8C28.2 14.2 25.7 14.2 24.1 15.8L15.8 24.1C14.2 25.7 14.2 28.2 15.8 29.8L21 35 35 21Z" fill="#ADB9CA"/></svg>