<svg viewBox="0 0 96 96" xmlns="http://www.w3.org/2000/svg" xmlns:xlink="http://www.w3.org/1999/xlink" id="Icons_Money" overflow="hidden"><path d="M86 71 83 74 14 74 10 70 10 50 14 46 83 46 86 49 86 71ZM4 40 4 80 92 80 92 40 4 40Z" fill="#ADB9CA"/><ellipse cx="48" cy="60" rx="8" ry="10" fill="#ADB9CA"/><circle cx="23" cy="60" r="3" fill="#ADB9CA"/><circle cx="73" cy="60" r="3" fill="#ADB9CA"/><path d="M65.9 20.7 67.4 24.5 73.4 23.3 69.2 12.8 15.4 34.8 46.2 28.7Z" fill="#ADB9CA"/><path d="M60.7 36 76.5 32.9 77.2 36 83.3 36 81.3 25.8 30 36Z" fill="#ADB9CA"/></svg>