<svg viewBox="0 0 96 96" xmlns="http://www.w3.org/2000/svg" xmlns:xlink="http://www.w3.org/1999/xlink" id="Icons_VideoCamera" overflow="hidden"><circle cx="25" cy="32" r="2" fill="#8497B0"/><circle cx="25" cy="40" r="2" fill="#8497B0"/><circle cx="21" cy="36" r="2" fill="#8497B0"/><circle cx="29" cy="36" r="2" fill="#8497B0"/><circle cx="53" cy="28" r="2" fill="#8497B0"/><circle cx="53" cy="36" r="2" fill="#8497B0"/><circle cx="49" cy="32" r="2" fill="#8497B0"/><circle cx="57" cy="32" r="2" fill="#8497B0"/><path d="M82 45 76 51 68 51 68 73 76 73 82 79 88 79 88 45Z" fill="#8497B0"/><path d="M53 41C48 41 44 37 44 32 44 27 48 23 53 23 58 23 62 27 62 32 62 37 58 41 53 41ZM56 73C54.9 73 54 72.1 54 71 54 69.9 54.9 69 56 69 57.1 69 58 69.9 58 71 58 72.1 57.1 73 56 73ZM37 45C38.3 43.2 39.3 41.2 39.7 38.9 41 41.4 43.1 43.5 45.5 45L37 45ZM25 45C20 45 16 41 16 36 16 31 20 27 25 27 30 27 34 31 34 36 34 41 30 45 25 45ZM60.4 45C64.9 42.4 68 37.6 68 32 68 23.7 61.3 17 53 17 45.7 17 39.7 22.2 38.3 29.1 35.8 24.3 30.8 21 25 21 16.7 21 10 27.7 10 36 10 40.9 12.4 45.2 16 48L16 51 14 51 12 49 8 49 8 59 12 59 14 57 16 57 16 75C16 77.2 17.8 79 20 79L60 79C62.2 79 64 77.2 64 75L64 49C64 46.9 62.4 45.2 60.4 45Z" fill="#8497B0"/></svg>