<svg viewBox="0 0 96 96" xmlns="http://www.w3.org/2000/svg" xmlns:xlink="http://www.w3.org/1999/xlink" id="Icons_Repeat" overflow="hidden"><path d="M20.9 57.6 40.1 38.4 29.4 38.4C32.9 31.6 40 26.9 48.2 26.9 53.5 26.9 58.4 28.9 62.1 32.2L81.6 32.2C75.7 19.6 62.9 11 48.2 11 31.1 11 16.7 22.6 12.5 38.4L1.7 38.4 20.9 57.6Z" fill="#A6A6A6"/><path d="M94.6 57.6 75.4 38.4 56.2 57.6 67 57.6C63.5 64.4 56.4 69.1 48.2 69.1 42.9 69.1 38 67.1 34.3 63.8L14.7 63.8C20.7 76.4 33.4 85 48.2 85 65.3 85 79.7 73.4 83.9 57.6L94.6 57.6Z" fill="#A6A6A6"/></svg>