<svg viewBox="0 0 96 96" xmlns="http://www.w3.org/2000/svg" xmlns:xlink="http://www.w3.org/1999/xlink" id="Icons_DailyCalendar" overflow="hidden"><g><path d="M29 26C30.7 26 32 24.7 32 23L32 17C32 15.3 30.7 14 29 14 27.3 14 26 15.3 26 17L26 23C26 24.7 27.3 26 29 26Z" fill="#ADB9CA"/><path d="M20 68 36 68 36 76 20 76 20 68ZM20 56 36 56 36 64 20 64 20 56ZM20 44 36 44 36 52 20 52 20 44ZM56 44 56 52 40 52 40 44 56 44ZM76 44 76 52 60 52 60 44 76 44ZM76 64 60 64 60 56 76 56 76 64ZM76 76 60 76 60 68 76 68 76 76ZM40 64 40 56 56 56 56 64 40 64ZM40 76 40 68 56 68 56 76 40 76ZM14 82 82 82 82 38 14 38 14 82Z" fill="#ADB9CA"/><path d="M67 26C68.7 26 70 24.7 70 23L70 17C70 15.3 68.7 14 67 14 65.3 14 64 15.3 64 17L64 23C64 24.7 65.3 26 67 26Z" fill="#ADB9CA"/><path d="M74 20 74 23C74 26.9 70.9 30 67 30 63.1 30 60 26.9 60 23L60 20 36 20 36 23C36 26.9 32.9 30 29 30 25.1 30 22 26.9 22 23L22 20 14 20 14 34 82 34 82 20 74 20Z" fill="#ADB9CA"/></g></svg>