<svg viewBox="0 0 96 96" xmlns="http://www.w3.org/2000/svg" xmlns:xlink="http://www.w3.org/1999/xlink" id="Icons_OpenEnvelope" overflow="hidden"><rect x="34.9" y="26" width="26" height="4" fill="#ADB9CA"/><rect x="34.9" y="34" width="26" height="4" fill="#ADB9CA"/><rect x="34.9" y="42" width="26" height="4" fill="#ADB9CA"/><path d="M83 83.6 63 64.6 83 45.6 83 83.6ZM18.2 86 38 67.3 39.4 66C44.8 60.9 53.3 60.9 58.7 66L60.1 67.3 79.8 86 18.2 86ZM15 45.5 35 64.5 15 83.5 15 45.5ZM29 20 69 20 69 53.3 60 61.9C53.5 56.9 44.5 56.9 38 61.9L29 53.3 29 20ZM75 22.7 75 14 61 14 49 4 37 14 23 14 23 22.8 9 36.1 9 92 89 92 89 36.1 75 22.7Z" fill="#ADB9CA"/></svg>