<svg viewBox="0 0 96 96" xmlns="http://www.w3.org/2000/svg" xmlns:xlink="http://www.w3.org/1999/xlink" id="Icons_TargetAudience" overflow="hidden"><path d="M64.3 69.1C62.8 67.6 61.9 65.5 61.9 63.4L61.3 62.8C52.2 68.4 40.6 67.8 32.1 61.3L31.8 61.5C30.7 62.3 30 63.6 30 65L30 74 66 74 66 70.8 64.3 69.1Z" fill="#ADB9CA"/><path d="M73.5 39.5C78.4 38.7 81.7 34 80.9 29.1 80.1 24.2 75.4 20.9 70.5 21.7 69.1 21.9 67.8 22.5 66.7 23.3 70.8 27.7 73.2 33.4 73.5 39.5Z" fill="#ADB9CA"/><path d="M88.2 47.4C85.6 45.4 82.6 43.9 79.4 43.2 77.5 42.6 75.5 42.3 73.5 42.1 73.3 46.4 72 50.6 69.7 54.3L70.3 54.9C72.4 54.9 74.5 55.8 76 57.3L78.7 60 90 60 90 51C90 49.6 89.4 48.2 88.2 47.4Z" fill="#ADB9CA"/><path d="M83.4 68.9 74 59.4C72.7 58.2 71 57.6 69.2 58L65.8 54.7C68.9 50.7 70.5 45.9 70.5 40.9 70.6 28.3 60.4 18 47.7 17.9 35 17.8 24.9 28 24.9 40.6 24.9 53.2 35 63.5 47.7 63.6 52.7 63.6 57.6 62 61.7 58.9L65.1 62.2C64.8 63.9 65.3 65.7 66.5 67L76 76.5C78 78.6 81.4 78.7 83.5 76.7 85.6 74.7 85.7 71.3 83.7 69.2 83.6 69.1 83.5 69 83.4 68.9L83.4 68.9ZM47.8 22.6C57.9 22.6 66 30.7 66 40.8 66 45.1 64.5 49.3 61.7 52.5 59.8 51.6 57.9 50.9 55.9 50.4 53.2 49.6 50.4 49.1 47.6 49.1 44.8 49.1 42 49.6 39.3 50.4 37.4 50.9 35.6 51.6 33.9 52.6 27.4 45 28.3 33.5 35.9 27 39.2 24.1 43.4 22.6 47.8 22.6Z" fill="#ADB9CA"/><circle cx="47.6" cy="36.8" r="10.1" fill="#ADB9CA"/><path d="M22 42.1C20.2 42.3 18.4 42.6 16.6 43.2 13.5 44.1 10.5 45.6 7.8 47.4 6.6 48.2 6 49.6 6 51L6 60 27.6 60C28 59.4 28.5 58.9 29.1 58.5 24.8 54 22.3 48.2 22 42.1Z" fill="#ADB9CA"/><path d="M22 39.4C22.3 33.3 24.8 27.6 29 23.1 24.9 20.3 19.3 21.4 16.5 25.6 13.7 29.8 14.8 35.3 19 38.1 19.9 38.7 20.9 39.1 22 39.4Z" fill="#ADB9CA"/></svg>