<svg viewBox="0 0 96 96" xmlns="http://www.w3.org/2000/svg" xmlns:xlink="http://www.w3.org/1999/xlink" id="Icons_EmployeeBadge" overflow="hidden"><g><path d="M50 30 46 30C43.8 30 42 28.2 42 26L42 18C42 15.8 43.8 14 46 14L50 14C52.2 14 54 15.8 54 18L54 26C54 28.2 52.2 30 50 30Z" fill="#8497B0"/><path d="M80 50 56 50 56 46 80 46 80 50ZM80 62 56 62 56 58 80 58 80 62ZM80 74 56 74 56 70 80 70 80 74ZM48 74 16 74 16 66C16 64.8 16.6 63.6 17.6 62.8 19.8 61.2 22.6 59.8 25.4 59 27.6 58.4 29.8 58 32 58 34.4 58 36.6 58.4 38.6 59 41.4 59.8 44.2 61 46.4 62.8 47.4 63.6 48 64.8 48 66L48 74ZM32 40C36.4 40 40 43.6 40 48 40 52.4 36.4 56 32 56 27.6 56 24 52.4 24 48 24 43.6 27.6 40 32 40ZM84 26 58 26C58 30.4 54.4 34 50 34L46 34C41.6 34 38 30.4 38 26L12 26C9.8 26 8 27.8 8 30L8 78C8 80.2 9.8 82 12 82L84 82C86.2 82 88 80.2 88 78L88 30C88 27.8 86.2 26 84 26Z" fill="#8497B0"/></g></svg>